<svg xmlns="http://www.w3.org/2000/svg" xmlns:xlink="http://www.w3.org/1999/xlink" width="1080" zoomAndPan="magnify" viewBox="0 0 810 809.999993" height="1080" preserveAspectRatio="xMidYMid meet" version="1.0"><defs><clipPath id="c464789c8d"><path d="M 228.847656 228.851562 L 581.152344 228.851562 L 581.152344 581.152344 L 228.847656 581.152344 Z M 228.847656 228.851562 " clip-rule="nonzero"/></clipPath><clipPath id="81906d79ea"><path d="M 405 228.851562 C 307.714844 228.851562 228.847656 307.714844 228.847656 405 C 228.847656 502.285156 307.714844 581.152344 405 581.152344 C 502.285156 581.152344 581.152344 502.285156 581.152344 405 C 581.152344 307.714844 502.285156 228.851562 405 228.851562 Z M 405 228.851562 " clip-rule="nonzero"/></clipPath></defs><g clip-path="url(#c464789c8d)"><g clip-path="url(#81906d79ea)"><path fill="#524fe1" d="M 228.847656 228.851562 L 581.152344 228.851562 L 581.152344 581.152344 L 228.847656 581.152344 Z M 228.847656 228.851562 " fill-opacity="1" fill-rule="nonzero"/></g></g><path stroke-linecap="round" transform="matrix(0.75, 0, 0, 0.75, 275.39999, 394.125)" fill="none" stroke-linejoin="miter" d="M 14.497931 14.500001 L 331.102114 14.500001 " stroke="#ffffff" stroke-width="29" stroke-opacity="1" stroke-miterlimit="4"/><path stroke-linecap="round" transform="matrix(0, 0.75, -0.75, 0, 415.872631, 275.402351)" fill="none" stroke-linejoin="miter" d="M 14.499991 14.50205 L 331.098965 14.50205 " stroke="#ffffff" stroke-width="29" stroke-opacity="1" stroke-miterlimit="4"/></svg>